<?xml version="1.0" encoding="UTF-8"?>
<svg width="209px" height="49px" viewBox="0 0 209 49" version="1.1" xmlns="http://www.w3.org/2000/svg" xmlns:xlink="http://www.w3.org/1999/xlink">
    <!-- Generator: Sketch 49.1 (51147) - http://www.bohemiancoding.com/sketch -->
    <title>NTI Gymnasiet - Logotyp (RGB)</title>
    <desc>Created with Sketch.</desc>
    <defs></defs>
    <g id="Page-1" stroke="none" stroke-width="1" fill="none" fill-rule="evenodd">
        <g id="Start" transform="translate(-50.000000, -50.000000)" fill="#000000">
            <g id="NTI-Gymnasiet---Logotyp-(RGB)" transform="translate(50.000000, 50.000000)">
                <polyline id="Fill-1" points="38.9937917 33 38.9937917 16.9777018 34 16.9777018 34 13 48 13 48 16.9777018 43.0059332 16.9777018 43.0059332 33 38.9937917 33"></polyline>
                <polyline id="Fill-2" points="18.9503331 31.5970735 15 31.5970735 15 12 16.0496669 12 26.0220441 23.2751007 26.0220441 12.4295076 30 12.4295076 30 32 28.9503331 32 18.9503331 21.1541437 18.9503331 31.5970735"></polyline>
                <polygon id="Fill-3" points="52 33 56 33 56 13 52 13"></polygon>
                <path d="M70.7028538,23.857524 L74.7427815,23.857524 L74.7427815,31.4183565 C74.2715294,31.5485592 73.7303409,31.6406083 73.1331484,31.691302 C72.5023536,31.7449306 71.8857647,31.7718783 71.3000462,31.7718783 C69.9849115,31.7718783 68.8662001,31.6547492 67.9750557,31.4236926 C67.0942924,31.1958378 66.3799017,30.7873533 65.8512798,30.209445 C65.3201992,29.6294023 64.9319968,28.8433831 64.6976001,27.8727321 C64.4604716,26.89381 64.3402681,25.6366062 64.3402681,24.1360726 L64.3402681,22.0803095 C64.3402681,20.5258805 64.4604716,19.2227855 64.6976001,18.2075774 C64.93227,17.2017076 65.3248434,16.3978122 65.8643929,15.8180363 C66.4025764,15.2401281 67.126802,14.826841 68.0174001,14.5896478 C68.9181062,14.3497866 70.0507502,14.2278549 71.3833691,14.2278549 C72.1114193,14.2278549 72.7908418,14.2777481 73.4022402,14.3754002 C74.0130921,14.4733191 74.5531879,14.5952508 75.0077754,14.7371932 L75.1077628,14.7684098 L75.4418737,13.6587513 L75.3495356,13.6275347 C74.9203547,13.4821238 74.3379145,13.3396478 73.6180599,13.2046425 C72.8952003,13.0688367 72.1616862,13 71.4385534,13 C69.7354894,13 68.3261043,13.1931697 67.2494641,13.5739061 C66.165721,13.9570438 65.2936998,14.536286 64.6571681,15.2950907 C64.0211827,16.053095 63.5810743,17.0050694 63.3483167,18.1245998 C63.1171983,19.233191 63,20.5277481 63,21.9719851 L63,24.1360726 C63,25.4519744 63.0794982,26.6670224 63.2360358,27.7475987 C63.3944858,28.8409819 63.7641113,29.7886873 64.3345312,30.564301 C64.9065902,31.3433831 65.760854,31.951174 66.8735552,32.3711313 C67.9788803,32.7884205 69.4868869,33 71.3555037,33 C71.6516412,33 72.0133443,32.9815902 72.4310511,32.945571 C72.8520363,32.9087513 73.2727483,32.863127 73.6817131,32.8097652 C74.0966881,32.7558698 74.5092044,32.6872999 74.907788,32.6056564 C75.3085571,32.523746 75.6544152,32.4263607 75.9355273,32.3167022 L76,32.2916222 L76,22.6294023 L70.9678477,22.6294023 L70.7028538,23.857524" id="Fill-4"></path>
                <polyline id="Fill-5" points="86.4446214 23.4365711 80.4202982 13 79 13 85.7917511 24.5850381 85.7917511 33 87.0684451 33 87.0684451 24.5578895 94 13 92.578073 13 86.4446214 23.4365711"></polyline>
                <polyline id="Fill-6" points="105.041078 26.2745571 98.2804176 13 97 13 97 33 98.2367296 33 98.2367296 15.75133 104.421751 27.7457906 105.606825 27.7457906 111.76327 15.5105578 111.76327 33 113 33 113 13 111.691281 13 105.041078 26.2745571"></polyline>
                <polyline id="Fill-7" points="130.813364 30.8368892 120.303427 13 119 13 119 33 120.186636 33 120.186636 15.2179565 130.667573 32.9511874 130.696573 33 132 33 132 13 130.813364 13 130.813364 30.8368892"></polyline>
                <path d="M147.885391,25.3715242 L140.004919,25.3715242 L143.931949,14.4032249 L147.885391,25.3715242 Z M144.76716,13 L143.20535,13 L136,33 L137.280981,33 L139.548908,26.6335216 L148.341941,26.6335216 L150.637088,33 L152,33 L144.791416,13.0671859 L144.76716,13 Z" id="Fill-8"></path>
                <path d="M166.098752,24.0336179 C165.757047,23.6000534 165.290939,23.2270544 164.71351,22.9250267 C164.138217,22.6237994 163.403551,22.4063501 162.530066,22.2788154 L159.93177,21.9002134 C159.200307,21.7932231 158.592445,21.653682 158.124469,21.4858591 C157.6629,21.3204376 157.288625,21.0923159 157.012325,20.8068303 C156.736825,20.5234792 156.540611,20.1608858 156.428489,19.7289221 C156.313697,19.2897545 156.255767,18.7339915 156.255767,18.0771078 C156.255767,17.3559232 156.370826,16.7419957 156.598274,16.2526681 C156.823586,15.7673426 157.157816,15.3713981 157.592156,15.0763074 C158.029966,14.7785486 158.582301,14.5608324 159.233677,14.428762 C159.891193,14.2956243 160.649352,14.2278549 161.487064,14.2278549 C162.432627,14.2278549 163.282352,14.2956243 164.013014,14.4290288 C164.743676,14.5627001 165.421481,14.7390608 166.027474,14.952508 L166.12438,14.9869264 L166.483171,13.8783351 L166.393473,13.8447172 C165.816311,13.6286019 165.143045,13.4316969 164.39156,13.2593383 C163.638473,13.0872465 162.734288,13 161.703566,13 C159.508376,13 157.826278,13.4298292 156.703989,14.2777481 C155.573424,15.1326041 155,16.35619 155,17.9146211 L155,18.1854322 C155,18.9842583 155.083291,19.6806297 155.247203,20.2548026 C155.413517,20.8364461 155.685546,21.328175 156.056083,21.7166489 C156.425018,22.1043223 156.906076,22.4170224 157.485373,22.6467449 C158.057463,22.8737994 158.761963,23.0442903 159.578853,23.1531483 L162.09626,23.5048026 C162.893128,23.6109925 163.538364,23.7852188 164.013281,24.0226788 C164.483927,24.2577375 164.849659,24.5482924 165.100865,24.885539 C165.352072,25.2233191 165.518921,25.61873 165.596872,26.0602988 C165.676692,26.5120064 165.717003,27.0114728 165.717003,27.5442903 C165.717003,28.2147812 165.623301,28.822572 165.438566,29.350587 C165.255434,29.8729989 164.959912,30.3185699 164.56001,30.6750267 C164.158239,31.0325507 163.620587,31.3073639 162.96227,31.4917289 C162.297813,31.6776948 161.464639,31.7718783 160.485707,31.7718783 C159.412805,31.7718783 158.488866,31.7177161 157.739249,31.6107257 C156.988832,31.5034685 156.201575,31.322572 155.400436,31.0733725 L155.294454,31.0402882 L155.066472,32.1803629 L155.14736,32.2097118 C155.799003,32.4450374 156.569709,32.6376734 157.438122,32.7822839 C158.305733,32.9266275 159.26758,33 160.296167,33 C161.472915,33 162.497764,32.8711313 163.342684,32.6168623 C164.190808,32.3620598 164.895308,31.9957311 165.436164,31.5285486 C165.978621,31.0594984 166.379591,30.4909285 166.628128,29.8383138 C166.874797,29.1902348 167,28.4546425 167,27.6523479 L167,27.3009605 C167,26.6848986 166.935129,26.0904482 166.808058,25.5338847 C166.67885,24.9719851 166.44019,24.4671825 166.098752,24.0336179" id="Fill-9"></path>
                <polygon id="Fill-10" points="172 33 173 33 173 13 172 13"></polygon>
                <polyline id="Fill-11" points="190.7482 14.2343004 191 13 180 13 180 33 190.7482 33 191 31.7656996 181.217334 31.7656996 181.217334 23.1862008 189.830024 23.1862008 190.081824 21.9519004 181.217334 21.9519004 181.217334 14.2343004 190.7482 14.2343004"></polyline>
                <polyline id="Fill-12" points="194.25979 13 194 14.2343004 200.817818 14.2343004 200.817818 33 202.073781 33 202.073781 14.2343004 208.739943 14.2343004 209 13 194.25979 13"></polyline>
                <path d="M21,3.92724467 L21,0 L0,0 L0,21.9902019 C0,36.9857477 7.52592056,41.7803609 19.805672,48.3613821 L21,49 L21,44.5522804 L20.8524434,44.4728904 C9.70778379,38.46859 3.89250591,34.7418386 3.89250591,21.9902019 L3.89250591,3.92697555 L21,3.92724467" id="Fill-13"></path>
            </g>
        </g>
    </g>
</svg>